<svg width="30" height="30" viewBox="0 0 30 30" fill="none" xmlns="http://www.w3.org/2000/svg">
<g clip-path="url(#clip0)">
<path d="M11.667 21.4739C10.923 21.4739 10.1956 21.6945 9.57698 22.1079C8.95832 22.5213 8.47613 23.1088 8.1914 23.7962C7.90666 24.4836 7.83216 25.24 7.97732 25.9698C8.12247 26.6996 8.48077 27.3699 9.0069 27.896C9.53302 28.4221 10.2033 28.7804 10.9331 28.9256C11.6629 29.0707 12.4193 28.9963 13.1067 28.7115C13.7941 28.4268 14.3816 27.9446 14.795 27.3259C15.2084 26.7073 15.429 25.9799 15.429 25.2359C15.4274 24.2386 15.0306 23.2827 14.3254 22.5775C13.6202 21.8723 12.6643 21.4755 11.667 21.4739ZM13.467 25.2359C13.467 25.5919 13.3615 25.9399 13.1637 26.2359C12.9659 26.5319 12.6848 26.7626 12.3559 26.8989C12.027 27.0351 11.665 27.0707 11.3159 27.0013C10.9667 26.9318 10.646 26.7604 10.3942 26.5087C10.1425 26.2569 9.97107 25.9362 9.90162 25.587C9.83216 25.2379 9.86781 24.876 10.004 24.547C10.1403 24.2181 10.371 23.937 10.667 23.7392C10.963 23.5414 11.311 23.4359 11.667 23.4359C12.1444 23.4359 12.6023 23.6255 12.9398 23.9631C13.2774 24.3006 13.467 24.7585 13.467 25.2359Z" fill="#313131"/>
<path d="M26.238 21.4739C25.4939 21.4739 24.7666 21.6945 24.1479 22.1079C23.5292 22.5213 23.0471 23.1088 22.7623 23.7962C22.4776 24.4836 22.4031 25.24 22.5482 25.9698C22.6934 26.6996 23.0517 27.3699 23.5778 27.896C24.1039 28.4221 24.7743 28.7804 25.504 28.9256C26.2338 29.0707 26.9902 28.9963 27.6776 28.7115C28.365 28.4268 28.9526 27.9446 29.3659 27.3259C29.7793 26.7073 30 25.9799 30 25.2359C29.9984 24.2386 29.6015 23.2827 28.8963 22.5775C28.1912 21.8723 27.2352 21.4755 26.238 21.4739ZM28.038 25.2359C28.038 25.5919 27.9324 25.9399 27.7346 26.2359C27.5368 26.5319 27.2557 26.7626 26.9268 26.8989C26.5979 27.0351 26.236 27.0707 25.8868 27.0013C25.5376 26.9318 25.2169 26.7604 24.9652 26.5087C24.7134 26.2569 24.542 25.9362 24.4725 25.587C24.4031 25.2379 24.4387 24.876 24.575 24.547C24.7112 24.2181 24.9419 23.937 25.2379 23.7392C25.5339 23.5414 25.882 23.4359 26.238 23.4359C26.7153 23.4359 27.1732 23.6255 27.5108 23.9631C27.8483 24.3006 28.038 24.7585 28.038 25.2359Z" fill="#313131"/>
<path d="M9.08698 20.667H25.347C25.5669 20.6669 25.7805 20.5934 25.9539 20.458C26.1273 20.3227 26.2505 20.1333 26.304 19.92L29.43 7.43099C29.4665 7.28523 29.4693 7.13305 29.4381 6.98606C29.4069 6.83907 29.3426 6.70114 29.25 6.58279C29.1574 6.46444 29.039 6.3688 28.9038 6.30315C28.7686 6.23751 28.6203 6.20359 28.47 6.20399H6.68398L5.56798 1.74899C5.5145 1.53565 5.39129 1.34628 5.21792 1.21095C5.04454 1.07562 4.83092 1.00207 4.61098 1.00199H0.986982C0.85259 0.994582 0.718098 1.01466 0.591727 1.06099C0.465356 1.10732 0.34976 1.17893 0.252002 1.27145C0.154245 1.36397 0.0763795 1.47545 0.0231651 1.59908C-0.0300493 1.72271 -0.0574951 1.85589 -0.0574951 1.99049C-0.0574951 2.12508 -0.0300493 2.25827 0.0231651 2.3819C0.0763795 2.50553 0.154245 2.61701 0.252002 2.70953C0.34976 2.80204 0.465356 2.87366 0.591727 2.91999C0.718098 2.96632 0.85259 2.98639 0.986982 2.97899H3.87898L8.12698 19.92C8.18059 20.1338 8.30424 20.3236 8.47823 20.459C8.65222 20.5943 8.86653 20.6676 9.08698 20.667ZM7.22998 8.17799H27.204L24.576 18.678H9.85798L7.22998 8.17799Z" fill="#313131"/>
</g>
<defs>
<clipPath id="clip0">
<rect width="30" height="30" fill="white"/>
</clipPath>
</defs>
</svg>
