<svg width="34" height="34" viewBox="0 0 34 34" fill="none" xmlns="http://www.w3.org/2000/svg">
<g clip-path="url(#clip0)">
<path d="M34 17.8195C34.0013 17.6526 33.9616 17.488 33.8844 17.3401L29.1652 8.32326C29.0856 8.1391 28.9535 7.98249 28.7854 7.87303C28.6173 7.76357 28.4206 7.70612 28.22 7.70786H22.44V4.08006C22.44 3.80954 22.3325 3.5501 22.1412 3.35881C21.95 3.16752 21.6905 3.06006 21.42 3.06006H1.02C0.749479 3.06006 0.490038 3.16752 0.298751 3.35881C0.107464 3.5501 0 3.80954 0 4.08006L0 26.7479C0 27.0184 0.107464 27.2778 0.298751 27.4691C0.490038 27.6604 0.749479 27.7679 1.02 27.7679H3.536C3.77468 28.6771 4.30784 29.4816 5.05214 30.0557C5.79645 30.6299 6.70999 30.9413 7.65 30.9413C8.59001 30.9413 9.50355 30.6299 10.2479 30.0557C10.9922 29.4816 11.5253 28.6771 11.764 27.7679H22.236C22.4747 28.6771 23.0078 29.4816 23.7521 30.0557C24.4965 30.6299 25.41 30.9413 26.35 30.9413C27.29 30.9413 28.2035 30.6299 28.9479 30.0557C29.6922 29.4816 30.2253 28.6771 30.464 27.7679H32.98C33.2505 27.7679 33.51 27.6604 33.7012 27.4691C33.8925 27.2778 34 27.0184 34 26.7479V17.8195ZM27.54 9.74786L31.7662 17.5679H22.44V9.74786H27.54ZM2.04 5.10006H20.4V17.5679H2.04V5.10006ZM7.65 28.9001C7.35965 28.9005 7.07207 28.8436 6.80374 28.7327C6.53541 28.6218 6.2916 28.4591 6.0863 28.2538C5.88099 28.0485 5.71822 27.8046 5.60731 27.5363C5.49641 27.268 5.43955 26.9804 5.44 26.6901C5.43934 26.3567 5.51493 26.0275 5.661 25.7279C5.84139 25.3541 6.12355 25.0387 6.47508 24.818C6.8266 24.5973 7.23324 24.4803 7.6483 24.4803C8.06336 24.4803 8.47 24.5973 8.82152 24.818C9.17305 25.0387 9.45521 25.3541 9.6356 25.7279C9.78436 26.0267 9.8612 26.3562 9.86 26.6901C9.86059 27.0677 9.76337 27.439 9.5778 27.7679C9.38587 28.1107 9.10615 28.3963 8.76735 28.5952C8.42856 28.7942 8.0429 28.8994 7.65 28.9001ZM26.35 28.9001C26.0597 28.9005 25.7721 28.8436 25.5037 28.7327C25.2354 28.6218 24.9916 28.4591 24.7863 28.2538C24.581 28.0485 24.4182 27.8046 24.3073 27.5363C24.1964 27.268 24.1396 26.9804 24.14 26.6901C24.1393 26.3567 24.2149 26.0275 24.361 25.7279C24.5414 25.3541 24.8235 25.0387 25.1751 24.818C25.5266 24.5973 25.9332 24.4803 26.3483 24.4803C26.7634 24.4803 27.17 24.5973 27.5215 24.818C27.873 25.0387 28.1552 25.3541 28.3356 25.7279C28.4844 26.0267 28.5612 26.3562 28.56 26.6901C28.5606 27.0677 28.4634 27.439 28.2778 27.7679C28.0859 28.1107 27.8061 28.3963 27.4674 28.5952C27.1286 28.7942 26.7429 28.8994 26.35 28.9001ZM31.96 25.7279H30.4912C30.2723 24.7938 29.7441 23.9612 28.9923 23.3652C28.2405 22.7693 27.3093 22.445 26.35 22.445C25.3907 22.445 24.4595 22.7693 23.7077 23.3652C22.9559 23.9612 22.4277 24.7938 22.2088 25.7279H11.7912C11.5723 24.7938 11.0441 23.9612 10.2923 23.3652C9.54052 22.7693 8.60935 22.445 7.65 22.445C6.69065 22.445 5.75948 22.7693 5.0077 23.3652C4.25592 23.9612 3.72769 24.7938 3.5088 25.7279H2.04V19.6079H31.96V25.7279Z" fill="white"/>
</g>
<defs>
<clipPath id="clip0">
<rect width="34" height="34" fill="white"/>
</clipPath>
</defs>
</svg>
