<svg width="25" height="25" viewBox="0 0 25 25" fill="none" xmlns="http://www.w3.org/2000/svg">
<path d="M14.1725 25H10.1725C9.85774 24.9993 9.55608 24.874 9.33352 24.6515C9.11096 24.4289 8.98564 24.1272 8.98498 23.8125V14.735H6.60498C6.29024 14.7343 5.98858 14.609 5.76602 14.3865C5.54346 14.1639 5.41814 13.8622 5.41748 13.5475V9.67C5.41814 9.35526 5.54346 9.0536 5.76602 8.83104C5.98858 8.60848 6.29024 8.48316 6.60498 8.4825H8.97248V6.5C8.97248 2.605 11.53 0 15.3375 0H18.3975C18.7122 0.00066053 19.0139 0.125984 19.2364 0.34854C19.459 0.571097 19.5843 0.872758 19.585 1.1875V4.7875C19.5843 5.10224 19.459 5.4039 19.2364 5.62646C19.0139 5.84902 18.7122 5.97434 18.3975 5.975H16.335C15.3625 5.975 15.3625 6.155 15.3625 6.9125V8.4725H18.25C18.5661 8.47316 18.869 8.59901 19.0925 8.8225C19.203 8.93267 19.2905 9.06361 19.3502 9.20777C19.4098 9.35194 19.4403 9.50648 19.44 9.6625V13.5475C19.4393 13.8627 19.3137 14.1647 19.0906 14.3873C18.8675 14.61 18.5652 14.735 18.25 14.735H15.3625V23.8125C15.3618 24.1277 15.2362 24.4297 15.0131 24.6523C14.79 24.875 14.4877 25 14.1725 25ZM10.3875 23.585H13.9475V13.32H18.0225V9.895H13.9475V6.92C13.9475 5.825 14.22 4.5675 16.335 4.5675H18.1675V1.42H15.335C12.285 1.415 10.3875 3.3675 10.3875 6.5V9.895H6.83248V13.32H10.3875V23.585Z" fill="#313131"/>
</svg>
