<svg width="20" height="20" viewBox="0 0 20 20" fill="none" xmlns="http://www.w3.org/2000/svg">
<g clip-path="url(#clip0)">
<path d="M19.4 9.40008H12.94C12.8023 8.7219 12.4344 8.11219 11.8986 7.67425C11.3627 7.23631 10.692 6.99707 10 6.99707C9.30799 6.99707 8.63725 7.23631 8.10145 7.67425C7.56564 8.11219 7.19771 8.7219 7.06 9.40008H0.6C0.44087 9.40008 0.288258 9.46329 0.175736 9.57581C0.0632141 9.68834 0 9.84095 0 10.0001C0 10.1592 0.0632141 10.3118 0.175736 10.4243C0.288258 10.5369 0.44087 10.6001 0.6 10.6001H7.06C7.19771 11.2783 7.56564 11.888 8.10145 12.3259C8.63725 12.7638 9.30799 13.0031 10 13.0031C10.692 13.0031 11.3627 12.7638 11.8986 12.3259C12.4344 11.888 12.8023 11.2783 12.94 10.6001H19.4C19.5591 10.5999 19.7116 10.5366 19.824 10.4241C19.9366 10.3117 19.9999 10.1592 20 10.0001C20 9.84095 19.9368 9.68834 19.8243 9.57581C19.7117 9.46329 19.5591 9.40008 19.4 9.40008ZM10 11.8001C9.62795 11.7999 9.26511 11.6844 8.96139 11.4695C8.65768 11.2546 8.42802 10.9508 8.304 10.6001C8.16527 10.2121 8.16527 9.78805 8.304 9.40008C8.42684 9.04709 8.65651 8.7411 8.96114 8.52456C9.26577 8.30803 9.63025 8.19169 10.004 8.19169C10.3777 8.19169 10.7422 8.30803 11.0469 8.52456C11.3515 8.7411 11.5812 9.04709 11.704 9.40008C11.8427 9.78805 11.8427 10.2121 11.704 10.6001C11.5795 10.9521 11.3486 11.2568 11.0433 11.4718C10.738 11.6868 10.3734 11.8015 10 11.8001Z" fill="#313131"/>
<path d="M19.4 15.6H18.74C18.6023 14.9219 18.2344 14.3121 17.6986 13.8742C17.1627 13.4363 16.492 13.197 15.8 13.197C15.108 13.197 14.4373 13.4363 13.9014 13.8742C13.3656 14.3121 12.9977 14.9219 12.86 15.6H0.6C0.44087 15.6 0.288258 15.6632 0.175736 15.7758C0.0632141 15.8883 0 16.0409 0 16.2C0 16.3592 0.0632141 16.5118 0.175736 16.6243C0.288258 16.7368 0.44087 16.8 0.6 16.8H12.86C12.9977 17.4782 13.3656 18.0879 13.9014 18.5259C14.4373 18.9638 15.108 19.203 15.8 19.203C16.492 19.203 17.1627 18.9638 17.6986 18.5259C18.2344 18.0879 18.6023 17.4782 18.74 16.8H19.4C19.5591 16.7999 19.7116 16.7366 19.824 16.624C19.9366 16.5116 19.9999 16.3591 20 16.2C20 16.0409 19.9368 15.8883 19.8243 15.7758C19.7117 15.6632 19.5591 15.6 19.4 15.6ZM15.8 18C15.428 17.9998 15.0651 17.8843 14.7614 17.6694C14.4577 17.4545 14.228 17.1508 14.104 16.8C13.9653 16.4121 13.9653 15.988 14.104 15.6C14.2268 15.247 14.4565 14.9411 14.7611 14.7245C15.0658 14.508 15.4303 14.3916 15.804 14.3916C16.1777 14.3916 16.5422 14.508 16.8469 14.7245C17.1515 14.9411 17.3812 15.247 17.504 15.6C17.6427 15.988 17.6427 16.4121 17.504 16.8C17.3795 17.1521 17.1486 17.4567 16.8433 17.6717C16.538 17.8867 16.1734 18.0015 15.8 18Z" fill="#313131"/>
<path d="M0.6 4.40013H1.26C1.39771 5.0783 1.76564 5.68801 2.30145 6.12595C2.83725 6.56389 3.50799 6.80313 4.2 6.80313C4.89201 6.80313 5.56275 6.56389 6.09856 6.12595C6.63436 5.68801 7.00229 5.0783 7.14 4.40013H19.4C19.5591 4.39999 19.7116 4.33668 19.824 4.22413C19.9366 4.11171 19.9999 3.9592 20 3.80013C20 3.641 19.9368 3.48838 19.8243 3.37586C19.7117 3.26334 19.5591 3.20013 19.4 3.20013H7.14C7.00229 2.52195 6.63436 1.91224 6.09856 1.4743C5.56275 1.03636 4.89201 0.797119 4.2 0.797119C3.50799 0.797119 2.83725 1.03636 2.30145 1.4743C1.76564 1.91224 1.39771 2.52195 1.26 3.20013H0.6C0.44087 3.20013 0.288258 3.26334 0.175736 3.37586C0.0632141 3.48838 0 3.641 0 3.80013C0 3.95926 0.0632141 4.11187 0.175736 4.22439C0.288258 4.33691 0.44087 4.40013 0.6 4.40013ZM4.2 2.00013C4.57205 2.00034 4.93489 2.11585 5.23861 2.33074C5.54232 2.54563 5.77198 2.84935 5.896 3.20013C6.03473 3.5881 6.03473 4.01216 5.896 4.40013C5.77316 4.75311 5.54349 5.0591 5.23886 5.27564C4.93423 5.49218 4.56975 5.60852 4.196 5.60852C3.82225 5.60852 3.45777 5.49218 3.15314 5.27564C2.84851 5.0591 2.61884 4.75311 2.496 4.40013C2.35727 4.01216 2.35727 3.5881 2.496 3.20013C2.62047 2.84806 2.85135 2.54343 3.15666 2.32842C3.46197 2.11342 3.82659 1.99869 4.2 2.00013Z" fill="#313131"/>
</g>
<defs>
<clipPath id="clip0">
<rect width="20" height="20" fill="white"/>
</clipPath>
</defs>
</svg>
