<svg width="30" height="30" viewBox="0 0 30 30" fill="none" xmlns="http://www.w3.org/2000/svg">
<g clip-path="url(#clip0)">
<path d="M27.6 4.27201C26.8343 3.43678 25.9021 2.77117 24.8636 2.31803C23.825 1.86489 22.7031 1.63427 21.57 1.64101C19.8481 1.63377 18.1748 2.21128 16.824 3.27901C16.1335 3.8192 15.5198 4.45102 15 5.15701C14.48 4.45206 13.8663 3.82125 13.176 3.28201C11.8257 2.21299 10.1522 1.63438 8.42998 1.64101C7.29692 1.63445 6.17504 1.86516 5.13651 2.31829C4.09798 2.77142 3.16582 3.43693 2.39998 4.27201C0.819132 6.03763 -0.0378694 8.3344 -1.82919e-05 10.704C-1.82919e-05 13.248 0.947982 15.576 2.97898 18.03C4.77898 20.214 7.38298 22.425 10.392 24.987L10.44 25.029C11.448 25.887 12.6 26.862 13.776 27.9C14.1149 28.1962 14.5498 28.3595 15 28.3595C15.4501 28.3595 15.885 28.1962 16.224 27.9C17.46 26.82 18.654 25.8 19.617 24.981C22.62 22.419 25.2 20.211 27.021 18.03C29.052 15.576 30 13.248 30 10.704C30.0378 8.3344 29.1808 6.03763 27.6 4.27201ZM28.023 10.704C28.023 12.804 27.243 14.667 25.497 16.773C23.799 18.822 21.27 20.973 18.33 23.484C17.4 24.3 16.218 25.29 15 26.352C13.833 25.332 12.708 24.372 11.7 23.526L11.649 23.484C8.72698 20.985 6.19498 18.825 4.49998 16.773C2.75398 14.673 1.97398 12.792 1.97398 10.704C1.93489 8.82917 2.60324 7.00835 3.84598 5.60401C4.42781 4.96846 5.13628 4.46179 5.92579 4.11664C6.7153 3.77149 7.56834 3.5955 8.42998 3.60001C9.71587 3.59587 10.9651 4.02849 11.973 4.82701C12.77 5.46505 13.4432 6.24395 13.959 7.12501C14.0641 7.30827 14.2157 7.46054 14.3984 7.56643C14.5812 7.67232 14.7887 7.72809 15 7.72809C15.2112 7.72809 15.4187 7.67232 15.6015 7.56643C15.7843 7.46054 15.9359 7.30827 16.041 7.12501C16.557 6.24407 17.2301 5.46519 18.027 4.82701C19.0349 4.02849 20.2841 3.59587 21.57 3.60001C22.4325 3.5931 23.2868 3.76707 24.0779 4.11069C24.869 4.45432 25.5793 4.95996 26.163 5.59501C27.4068 7.0021 28.0742 8.82648 28.032 10.704H28.023Z" fill="#313131"/>
</g>
<defs>
<clipPath id="clip0">
<rect width="30" height="30" fill="white"/>
</clipPath>
</defs>
</svg>
