<svg width="25" height="25" viewBox="0 0 25 25" fill="none" xmlns="http://www.w3.org/2000/svg">
<path d="M18.25 0H6.75C4.9608 0.00330416 3.24583 0.715524 1.98068 1.98068C0.715524 3.24583 0.00330416 4.9608 0 6.75L0 18.25C0.00330416 20.0392 0.715524 21.7542 1.98068 23.0193C3.24583 24.2845 4.9608 24.9967 6.75 25H18.25C20.0392 24.9967 21.7542 24.2845 23.0193 23.0193C24.2845 21.7542 24.9967 20.0392 25 18.25V6.75C24.9967 4.9608 24.2845 3.24583 23.0193 1.98068C21.7542 0.715524 20.0392 0.00330416 18.25 0V0ZM23.365 18.25C23.3617 19.6056 22.8217 20.9047 21.8632 21.8632C20.9047 22.8217 19.6056 23.3617 18.25 23.365H6.75C5.39443 23.3617 4.09533 22.8217 3.13679 21.8632C2.17826 20.9047 1.6383 19.6056 1.635 18.25V6.75C1.6383 5.39443 2.17826 4.09533 3.13679 3.13679C4.09533 2.17826 5.39443 1.6383 6.75 1.635H18.25C19.6056 1.6383 20.9047 2.17826 21.8632 3.13679C22.8217 4.09533 23.3617 5.39443 23.365 6.75V18.25Z" fill="#313131"/>
<path d="M12.5 6.21533C11.2564 6.21533 10.0406 6.58415 9.00662 7.27514C7.97259 7.96613 7.16671 8.94825 6.6909 10.0973C6.21508 11.2463 6.09072 12.5107 6.33352 13.7304C6.57633 14.9501 7.1754 16.0704 8.05498 16.9496C8.93455 17.8289 10.0551 18.4275 11.2749 18.6698C12.4947 18.9121 13.759 18.7873 14.9079 18.311C16.0567 17.8347 17.0385 17.0285 17.7291 15.9942C18.4197 14.9599 18.788 13.744 18.7875 12.5003C18.7855 10.8336 18.1224 9.23578 16.9436 8.05748C15.7648 6.87917 14.1667 6.21666 12.5 6.21533ZM12.5 17.1528C11.5798 17.1528 10.6803 16.88 9.91524 16.3687C9.15014 15.8575 8.55381 15.1309 8.20168 14.2808C7.84954 13.4306 7.75741 12.4952 7.93692 11.5927C8.11644 10.6902 8.55955 9.86118 9.21021 9.21052C9.86088 8.55985 10.6899 8.11675 11.5924 7.93723C12.4949 7.75771 13.4303 7.84985 14.2805 8.20198C15.1306 8.55412 15.8572 9.15044 16.3684 9.91554C16.8797 10.6806 17.1525 11.5802 17.1525 12.5003C17.1512 13.7338 16.6606 14.9165 15.7884 15.7887C14.9162 16.6609 13.7335 17.1515 12.5 17.1528Z" fill="#313131"/>
<path d="M19.3851 4.28467C19.0734 4.2851 18.7716 4.39354 18.5309 4.59152C18.2902 4.78951 18.1256 5.06481 18.0651 5.37053C18.0046 5.67625 18.0519 5.99349 18.199 6.26824C18.3461 6.54298 18.5839 6.75824 18.8719 6.87736C19.1599 6.99647 19.4803 7.01208 19.7785 6.92153C20.0767 6.83097 20.3343 6.63985 20.5074 6.3807C20.6805 6.12156 20.7585 5.81042 20.728 5.50026C20.6975 5.19011 20.5604 4.90012 20.3401 4.67967C20.2146 4.55433 20.0657 4.45494 19.9019 4.38717C19.738 4.31939 19.5624 4.28456 19.3851 4.28467Z" fill="#313131"/>
</svg>
