<svg width="25" height="25" viewBox="0 0 25 25" fill="none" xmlns="http://www.w3.org/2000/svg">
<g clip-path="url(#clip0)">
<path d="M24.6025 2.51481C24.1175 1.91981 23.2575 1.76481 22.3525 2.09731L1.2975 10.1348C0.145 10.5748 0 11.2498 0 11.6048C0 11.9598 0.2025 12.6248 1.38 12.9998H1.4025L5.75 14.2498L8.1025 20.9748C8.4225 21.9173 9.1675 22.4998 10.035 22.4998C10.6176 22.4851 11.1727 22.2491 11.5875 21.8398L14.25 19.3948L18.1275 22.5173L18.175 22.5548C18.5738 22.8836 19.0708 23.0701 19.5875 23.0848C20.525 23.0848 21.2725 22.3948 21.49 21.3348L24.94 4.29981C25.0213 3.99603 25.0332 3.67783 24.9748 3.36883C24.9164 3.05982 24.7891 2.76793 24.6025 2.51481ZM13 18.3898L10.555 20.6398L11.425 17.1198L13 18.3898ZM15.38 9.86981L10.38 15.1848C10.2866 15.2838 10.2203 15.4052 10.1875 15.5373L9.23 19.4323L7.325 13.9998L15.38 9.86981ZM19.6575 7.61981C19.7891 7.48503 19.8682 7.30768 19.8805 7.11973C19.8928 6.93178 19.8376 6.74561 19.7248 6.59478C19.612 6.44396 19.449 6.3384 19.2652 6.29715C19.0814 6.2559 18.889 6.28167 18.7225 6.36981L6.2675 12.7498L2.045 11.5423L22.92 3.57481C23.2675 3.44231 23.3675 3.50731 23.3775 3.51481C23.4373 3.66143 23.4426 3.82461 23.3925 3.97481L19.9425 20.9998C19.9125 21.1473 19.8175 21.4998 19.5925 21.4998C19.4302 21.4825 19.2774 21.4153 19.155 21.3073L12.12 15.6473L19.6575 7.61981Z" fill="#313131"/>
</g>
<defs>
<clipPath id="clip0">
<rect width="25" height="25" fill="white"/>
</clipPath>
</defs>
</svg>
