<svg width="30" height="30" viewBox="0 0 30 30" fill="none" xmlns="http://www.w3.org/2000/svg">
<g clip-path="url(#clip0)">
<path d="M29.928 15.129L29.808 14.907L25.848 5.04903H27.348C27.4688 5.04903 27.5884 5.02524 27.6999 4.97903C27.8115 4.93283 27.9128 4.8651 27.9982 4.77971C28.0836 4.69433 28.1513 4.59296 28.1975 4.4814C28.2437 4.36985 28.2675 4.25028 28.2675 4.12953C28.2675 4.00878 28.2437 3.88921 28.1975 3.77765C28.1513 3.66609 28.0836 3.56473 27.9982 3.47934C27.9128 3.39396 27.8115 3.32623 27.6999 3.28002C27.5884 3.23381 27.4688 3.21003 27.348 3.21003H15.867V1.71003C15.867 1.46616 15.7702 1.23228 15.5977 1.05984C15.4253 0.887403 15.1914 0.790527 14.9475 0.790527C14.7037 0.790527 14.4698 0.887403 14.2973 1.05984C14.1249 1.23228 14.028 1.46616 14.028 1.71003V3.21003H2.56204C2.44128 3.21003 2.32172 3.23381 2.21016 3.28002C2.0986 3.32623 1.99723 3.39396 1.91185 3.47934C1.82647 3.56473 1.75874 3.66609 1.71253 3.77765C1.66632 3.88921 1.64254 4.00878 1.64254 4.12953C1.64254 4.25028 1.66632 4.36985 1.71253 4.4814C1.75874 4.59296 1.82647 4.69433 1.91185 4.77971C1.99723 4.8651 2.0986 4.93283 2.21016 4.97903C2.32172 5.02524 2.44128 5.04903 2.56204 5.04903H4.13403L0.0720353 15.129C0.0262652 15.2384 0.0018265 15.3555 3.52578e-05 15.474C-0.0170739 16.206 0.112317 16.934 0.380602 17.6152C0.648886 18.2964 1.05065 18.9172 1.56228 19.4409C2.0739 19.9646 2.68507 20.3808 3.35984 20.6649C4.03461 20.949 4.75938 21.0954 5.49154 21.0954C6.22369 21.0954 6.94846 20.949 7.62323 20.6649C8.298 20.3808 8.90917 19.9646 9.42079 19.4409C9.93242 18.9172 10.3342 18.2964 10.6025 17.6152C10.8708 16.934 11.0001 16.206 10.983 15.474C10.9808 15.3584 10.9564 15.2444 10.911 15.138L6.85504 5.03703H14.028V23.802C10.98 24.129 8.70004 26.031 8.70004 28.302C8.70083 28.5453 8.7978 28.7783 8.96978 28.9503C9.14177 29.1223 9.37481 29.2192 9.61804 29.22H20.259C20.5023 29.2192 20.7353 29.1223 20.9073 28.9503C21.0793 28.7783 21.1762 28.5453 21.177 28.302C21.177 26.028 18.912 24.129 15.864 23.802V5.03703H23.121L19.089 15.129C19.0416 15.239 19.0161 15.3572 19.014 15.477C18.9969 16.209 19.1263 16.937 19.3946 17.6182C19.6629 18.2994 20.0646 18.9202 20.5763 19.4439C21.0879 19.9676 21.6991 20.3838 22.3738 20.6679C23.0486 20.952 23.7734 21.0984 24.5055 21.0984C25.2377 21.0984 25.9625 20.952 26.6372 20.6679C27.312 20.3838 27.9232 19.9676 28.4348 19.4439C28.9464 18.9202 29.3482 18.2994 29.6165 17.6182C29.8848 16.937 30.0141 16.209 29.997 15.477C29.9968 15.3577 29.9734 15.2395 29.928 15.129ZM9.00004 16.407C8.80067 17.1894 8.34635 17.8831 7.70884 18.3785C7.07132 18.874 6.28693 19.1429 5.47954 19.1429C4.67214 19.1429 3.88775 18.874 3.25023 18.3785C2.61272 17.8831 2.1584 17.1894 1.95904 16.407H9.00004ZM2.29204 14.568L5.50204 6.58203L8.70004 14.568H2.29204ZM19.059 27.384H10.827C11.469 26.337 13.134 25.584 14.94 25.584C16.746 25.584 18.417 26.337 19.059 27.384ZM28.011 16.407C27.8086 17.1898 27.3514 17.8829 26.7115 18.3772C26.0717 18.8715 25.2856 19.1388 24.477 19.137H24.351C23.5687 19.1051 22.8174 18.822 22.2085 18.3298C21.5995 17.8375 21.1653 17.1623 20.97 16.404L28.011 16.407ZM21.27 14.568L24.48 6.60003L27.678 14.58L21.27 14.568Z" fill="#313131"/>
</g>
<defs>
<clipPath id="clip0">
<rect width="30" height="30" fill="white"/>
</clipPath>
</defs>
</svg>
