<svg width="135" height="40" viewBox="0 0 135 40" fill="none" xmlns="http://www.w3.org/2000/svg">
<g clip-path="url(#clip0)">
<path d="M134.14 35.2772C134.14 35.7806 134.041 36.279 133.848 36.7441C133.655 37.2091 133.372 37.6316 133.016 37.9873C132.66 38.3431 132.237 38.6252 131.771 38.8175C131.305 39.0097 130.807 39.1084 130.303 39.1079H4.73248C3.71473 39.109 2.73822 38.706 2.01772 37.9876C1.29721 37.2693 0.891707 36.2943 0.890381 35.2772V4.72831C0.891707 3.71073 1.29705 2.73526 2.01741 2.01609C2.73778 1.29692 3.71427 0.892842 4.73248 0.892578H130.302C130.806 0.892578 131.305 0.9918 131.771 1.18458C132.236 1.37735 132.659 1.65991 133.016 2.0161C133.372 2.37229 133.654 2.79515 133.847 3.26052C134.04 3.72588 134.139 4.22465 134.139 4.72831L134.14 35.2772Z" fill="white"/>
<path d="M130.303 39.9981H4.73282C3.47906 39.9978 2.27662 39.5005 1.38933 38.6153C0.502041 37.73 0.00238555 36.5292 0 35.2762L0 4.72837C0.00185475 3.47476 0.501181 2.27308 1.38844 1.38693C2.2757 0.500779 3.47844 0.00252293 4.73282 0.00146484L130.302 0.00146484C131.556 0.00305089 132.759 0.501476 133.646 1.38751C134.533 2.27355 135.033 3.47493 135.035 4.72837V35.2762C135.037 37.8807 132.91 39.9981 130.303 39.9981Z" fill="#A6A6A6"/>
<path d="M134.14 35.2772C134.14 35.7806 134.041 36.279 133.848 36.7441C133.655 37.2091 133.372 37.6316 133.016 37.9873C132.66 38.3431 132.237 38.6252 131.771 38.8175C131.305 39.0097 130.807 39.1084 130.303 39.1079H4.73248C3.71473 39.109 2.73822 38.706 2.01772 37.9876C1.29721 37.2693 0.891707 36.2943 0.890381 35.2772V4.72831C0.891707 3.71073 1.29705 2.73526 2.01741 2.01609C2.73778 1.29692 3.71427 0.892842 4.73248 0.892578H130.302C130.806 0.892578 131.305 0.9918 131.771 1.18458C132.236 1.37735 132.659 1.65991 133.016 2.0161C133.372 2.37229 133.654 2.79515 133.847 3.26052C134.04 3.72588 134.139 4.22465 134.139 4.72831L134.14 35.2772Z" fill="black"/>
<path d="M30.1524 19.7898C30.1233 16.5662 32.7935 14.9979 32.9156 14.9249C31.4034 12.7215 29.0595 12.4204 28.2358 12.3964C26.2672 12.1894 24.3577 13.5736 23.3549 13.5736C22.332 13.5736 20.7878 12.4164 19.1234 12.4504C16.9817 12.4834 14.9781 13.7226 13.8792 15.647C11.6114 19.5708 13.3027 25.3369 15.4755 28.5085C16.5624 30.0628 17.8324 31.7961 19.4947 31.7351C21.1211 31.6691 21.7286 30.6999 23.6911 30.6999C25.6357 30.6999 26.2062 31.7351 27.9015 31.6961C29.647 31.6691 30.7458 30.1358 31.7947 28.5685C33.0507 26.7891 33.5551 25.0348 33.5751 24.9448C33.5351 24.9308 30.1864 23.6525 30.1524 19.7898ZM26.9498 10.31C27.8245 9.21679 28.423 7.7295 28.2568 6.22021C26.9908 6.27623 25.4075 7.09538 24.4958 8.16459C23.6891 9.10677 22.9686 10.6511 23.1547 12.1033C24.5769 12.2094 26.037 11.3862 26.9498 10.31Z" fill="white"/>
<path d="M130.303 0.00195313H63.0438L89.3881 39.9986H130.303C131.557 39.9975 132.76 39.4996 133.647 38.6138C134.534 37.7281 135.034 36.5269 135.036 35.2737V4.72886C135.034 3.47533 134.534 2.2738 133.647 1.38771C132.76 0.501616 131.557 0.00327529 130.303 0.00195312V0.00195313Z" fill="url(#paint0_linear)"/>
<path d="M53.7084 31.512H51.4356L50.1906 27.6022H45.8631L44.6771 31.512H42.4644L46.7528 18.2014H49.4009L53.7084 31.512ZM49.8153 25.9619L48.6894 22.4863C48.5703 22.1312 48.3461 21.295 48.0178 19.9788H47.9778C47.8457 20.5449 47.6345 21.381 47.3453 22.4863L46.2384 25.9619H49.8153ZM64.7153 26.595C64.7153 28.2273 64.2719 29.5176 63.3842 30.4648C62.5895 31.3079 61.6018 31.729 60.4238 31.729C59.1518 31.729 58.237 31.2759 57.6816 30.3678V35.4037H55.5479V25.0687C55.5479 24.0436 55.5209 22.9923 55.4688 21.9141H57.3453L57.4644 23.4354H57.5045C58.216 22.2892 59.2959 21.7161 60.7451 21.7161C61.878 21.7161 62.8237 22.1632 63.5803 23.0584C64.336 23.9555 64.7153 25.1338 64.7153 26.595ZM62.5415 26.6731C62.5415 25.7389 62.3313 24.9687 61.909 24.3616C61.4476 23.7305 60.8281 23.4144 60.0515 23.4144C59.5251 23.4144 59.0467 23.5905 58.6194 23.9375C58.191 24.2876 57.9108 24.7447 57.7797 25.3108C57.7211 25.5225 57.6879 25.7404 57.6806 25.9599V27.5612C57.6806 28.2584 57.8948 28.8475 58.3231 29.3296C58.7515 29.8097 59.3079 30.0507 59.9925 30.0507C60.7961 30.0507 61.4216 29.7396 61.869 29.1225C62.3173 28.5034 62.5415 27.6872 62.5415 26.6731ZM75.7611 26.595C75.7611 28.2273 75.3178 29.5176 74.4301 30.4648C73.6344 31.3079 72.6476 31.729 71.4687 31.729C70.1967 31.729 69.2819 31.2759 68.7265 30.3678V35.4037H66.5928V25.0687C66.5928 24.0436 66.5657 22.9923 66.5137 21.9141H68.3902L68.5093 23.4354H68.5493C69.2599 22.2892 70.3398 21.7161 71.79 21.7161C72.9219 21.7161 73.8676 22.1632 74.6262 23.0584C75.3808 23.9555 75.7611 25.1338 75.7611 26.595ZM73.5864 26.6731C73.5864 25.7389 73.3752 24.9687 72.9529 24.3616C72.4915 23.7305 71.874 23.4144 71.0974 23.4144C70.571 23.4144 70.0926 23.5905 69.6632 23.9375C69.2349 24.2876 68.9557 24.7447 68.8246 25.3108C68.7595 25.5748 68.7245 25.7899 68.7245 25.9599V27.5612C68.7245 28.2584 68.9397 28.8475 69.366 29.3296C69.7943 29.8087 70.3508 30.0507 71.0373 30.0507C71.842 30.0507 72.4675 29.7396 72.9139 29.1225C73.3622 28.5034 73.5864 27.6872 73.5864 26.6731ZM88.1111 27.7783C88.1111 28.9115 87.7148 29.8327 86.9271 30.5438C86.0604 31.3199 84.8505 31.709 83.2992 31.709C81.8661 31.709 80.7171 31.433 79.8504 30.8799L80.3438 29.1025C81.2796 29.6566 82.3074 29.9327 83.4263 29.9327C84.231 29.9327 84.8565 29.7506 85.3028 29.3896C85.7502 29.0275 85.9764 28.5434 85.9764 27.9393C85.9764 27.3982 85.7892 26.9451 85.4219 26.576C85.0526 26.208 84.4421 25.8649 83.5844 25.5498C81.2526 24.6807 80.0856 23.4094 80.0856 21.7371C80.0856 20.6449 80.498 19.7507 81.3206 19.0516C82.1433 18.3535 83.2342 18.0044 84.5912 18.0044C85.8032 18.0044 86.813 18.2154 87.6147 18.6365L87.0793 20.3748C86.3246 19.9668 85.473 19.7627 84.5202 19.7627C83.7676 19.7627 83.1771 19.9478 82.7548 20.3158C82.3995 20.6449 82.2193 21.046 82.2193 21.5221C82.2193 22.0472 82.4245 22.4833 82.8328 22.8253C83.1871 23.1404 83.8336 23.4834 84.7684 23.8515C85.9153 24.3136 86.758 24.8517 87.2974 25.4698C87.8409 26.0879 88.1111 26.8591 88.1111 27.7783ZM95.1838 23.5144H92.8319V28.1743C92.8319 29.3596 93.2462 29.9507 94.0769 29.9507C94.4582 29.9507 94.7744 29.9187 95.0246 29.8517L95.0837 31.471C94.6634 31.628 94.1099 31.707 93.4244 31.707C92.5817 31.707 91.9231 31.45 91.4478 30.9359C90.9744 30.4218 90.7362 29.5606 90.7362 28.3484V23.5104H89.3351V21.9101H90.7362V20.1528L92.8319 19.5207V21.9101H95.1838V23.5144ZM105.774 26.634C105.774 28.1093 105.352 29.3206 104.509 30.2677C103.628 31.2429 102.455 31.729 100.992 31.729C99.5813 31.729 98.4594 31.2619 97.6227 30.3288C96.7861 29.3936 96.3677 28.2153 96.3677 26.7941C96.3677 25.3068 96.8001 24.0886 97.6618 23.1414C98.5255 22.1932 99.6884 21.7191 101.151 21.7191C102.56 21.7191 103.692 22.1872 104.548 23.1214C105.367 24.0275 105.774 25.1978 105.774 26.634ZM103.563 26.6831C103.563 25.8039 103.372 25.0497 102.991 24.4186C102.544 23.6565 101.903 23.2754 101.074 23.2754C100.219 23.2754 99.5633 23.6565 99.1169 24.4186C98.7346 25.0497 98.5445 25.8169 98.5445 26.7231C98.5445 27.6032 98.7346 28.3594 99.1169 28.9885C99.5783 29.7506 100.222 30.1317 101.055 30.1317C101.871 30.1317 102.511 29.7426 102.973 28.9695C103.365 28.3234 103.563 27.5642 103.563 26.6831ZM112.713 23.7895C112.491 23.7495 112.266 23.7297 112.04 23.7305C111.29 23.7305 110.709 24.0125 110.301 24.5807C109.947 25.0807 109.769 25.7129 109.769 26.476V31.512H107.635V24.9367C107.637 23.9292 107.616 22.9217 107.573 21.9151H109.431L109.509 23.7515H109.568C109.795 23.1204 110.149 22.6113 110.635 22.2302C111.08 21.8972 111.621 21.7169 112.177 21.7161C112.375 21.7161 112.553 21.7301 112.711 21.7551L112.713 23.7895ZM122.256 26.259C122.261 26.5831 122.235 26.9071 122.177 27.2262H115.776C115.8 28.1743 116.111 28.9005 116.705 29.4006C117.245 29.8467 117.942 30.0707 118.799 30.0707C119.747 30.0707 120.611 29.9207 121.389 29.6176L121.723 31.0969C120.814 31.493 119.742 31.69 118.504 31.69C117.014 31.69 115.845 31.2519 114.995 30.3778C114.146 29.5026 113.721 28.3264 113.721 26.8531C113.721 25.4068 114.116 24.2016 114.908 23.2404C115.736 22.2142 116.856 21.7011 118.265 21.7011C119.649 21.7011 120.697 22.2142 121.409 23.2404C121.972 24.0536 122.256 25.0617 122.256 26.259ZM120.221 25.7059C120.236 25.0727 120.096 24.5276 119.807 24.0666C119.437 23.4724 118.869 23.1764 118.107 23.1764C117.41 23.1764 116.841 23.4654 116.409 24.0455C116.054 24.5066 115.842 25.0607 115.777 25.7039L120.221 25.7059Z" fill="white"/>
<path d="M45.2475 13.496C44.654 13.496 44.1406 13.467 43.7133 13.4179V6.98272C44.3109 6.89045 44.9149 6.84497 45.5197 6.8467C47.9667 6.8467 49.0936 8.04993 49.0936 10.0113C49.0936 12.2737 47.7625 13.496 45.2475 13.496ZM45.6058 7.67185C45.2755 7.67185 44.9943 7.69186 44.7611 7.73987V12.6318C44.8872 12.6518 45.1294 12.6608 45.4697 12.6608C47.073 12.6608 47.9857 11.7486 47.9857 10.0403C47.9857 8.51701 47.16 7.67185 45.6058 7.67185ZM52.6054 13.545C51.2263 13.545 50.3326 12.5158 50.3326 11.1185C50.3326 9.66223 51.2453 8.62403 52.6835 8.62403C54.0426 8.62403 54.9563 9.60422 54.9563 11.0415C54.9563 12.5158 54.0146 13.545 52.6054 13.545ZM52.6455 9.39018C51.8878 9.39018 51.4025 10.0983 51.4025 11.0885C51.4025 12.0597 51.8979 12.7678 52.6354 12.7678C53.373 12.7678 53.8684 12.0107 53.8684 11.0685C53.8684 10.1083 53.3831 9.39018 52.6455 9.39018ZM62.8207 8.72105L61.3445 13.438H60.3827L59.7712 11.3896C59.6192 10.8885 59.4926 10.3801 59.3919 9.86627H59.3719C59.2948 10.3804 59.1487 10.8955 58.9936 11.3896L58.3431 13.438H57.3713L55.9822 8.72105H57.06L57.5945 10.9635C57.7206 11.4976 57.8266 12.0017 57.9147 12.4778H57.9347C58.0118 12.0807 58.1379 11.5846 58.323 10.9735L58.9936 8.72205H59.8483L60.4898 10.9255C60.6449 11.4596 60.771 11.9837 60.8691 12.4788H60.8971C60.9652 11.9937 61.0723 11.4786 61.2174 10.9255L61.7908 8.72205L62.8207 8.72105ZM68.255 13.438H67.2062V10.7294C67.2062 9.89528 66.8859 9.4772 66.2544 9.4772C65.6329 9.4772 65.2056 10.0113 65.2056 10.6324V13.438H64.1567V10.0693C64.1567 9.65223 64.1467 9.20515 64.1177 8.72005H65.0405L65.0895 9.44819H65.1185C65.4007 8.9441 65.9732 8.62403 66.6147 8.62403C67.6055 8.62403 68.256 9.38118 68.256 10.6134L68.255 13.438ZM71.1474 13.438H70.0975V6.55664H71.1474V13.438ZM74.9715 13.545C73.5934 13.545 72.6986 12.5158 72.6986 11.1185C72.6986 9.66223 73.6114 8.62403 75.0485 8.62403C76.4086 8.62403 77.3214 9.60422 77.3214 11.0415C77.3224 12.5158 76.3796 13.545 74.9715 13.545ZM75.0105 9.39018C74.2529 9.39018 73.7675 10.0983 73.7675 11.0885C73.7675 12.0597 74.2639 12.7678 74.9995 12.7678C75.7381 12.7678 76.2325 12.0107 76.2325 11.0685C76.2335 10.1083 75.7491 9.39018 75.0105 9.39018ZM81.4567 13.438L81.3806 12.8948H81.3526C81.0324 13.3319 80.565 13.545 79.9725 13.545C79.1268 13.545 78.5263 12.9529 78.5263 12.1567C78.5263 10.9925 79.5361 10.3904 81.2846 10.3904V10.3034C81.2846 9.68224 80.9553 9.37118 80.3048 9.37118C79.8394 9.37118 79.4311 9.4882 79.0718 9.72124L78.8586 9.03211C79.2949 8.76006 79.8394 8.62403 80.4789 8.62403C81.7119 8.62403 82.3344 9.27416 82.3344 10.5754V12.3127C82.3344 12.7888 82.3554 13.1579 82.4025 13.439L81.4567 13.438ZM81.3126 11.0885C80.1476 11.0885 79.5632 11.3706 79.5632 12.0397C79.5632 12.5348 79.8644 12.7768 80.2828 12.7768C80.8162 12.7768 81.3126 12.3697 81.3126 11.8166V11.0885ZM87.4275 13.438L87.3785 12.6808H87.3494C87.0482 13.2529 86.5418 13.545 85.8342 13.545C84.6963 13.545 83.8536 12.5448 83.8536 11.1375C83.8536 9.66223 84.7273 8.62304 85.9203 8.62304C86.5518 8.62304 86.9992 8.83608 87.2514 9.26416H87.2724V6.55664H88.3222V12.1667C88.3222 12.6228 88.3332 13.0499 88.3613 13.438H87.4275ZM87.2724 10.6624C87.2724 10.0023 86.835 9.43919 86.1675 9.43919C85.3899 9.43919 84.9145 10.1283 84.9145 11.0985C84.9145 12.0497 85.4079 12.7008 86.1465 12.7008C86.806 12.7008 87.2724 12.1277 87.2724 11.4486V10.6624ZM94.9786 13.545C93.6005 13.545 92.7068 12.5158 92.7068 11.1185C92.7068 9.66223 93.6195 8.62403 95.0567 8.62403C96.4168 8.62403 97.3295 9.60422 97.3295 11.0415C97.3305 12.5158 96.3887 13.545 94.9786 13.545ZM95.0176 9.39018C94.261 9.39018 93.7756 10.0983 93.7756 11.0885C93.7756 12.0597 94.271 12.7678 95.0076 12.7678C95.7462 12.7678 96.2406 12.0107 96.2406 11.0685C96.2426 10.1083 95.7572 9.39018 95.0176 9.39018ZM102.97 13.438H101.92V10.7294C101.92 9.89528 101.6 9.4772 100.968 9.4772C100.347 9.4772 99.9206 10.0113 99.9206 10.6324V13.438H98.8707V10.0693C98.8707 9.65223 98.8607 9.20515 98.8317 8.72005H99.7545L99.8035 9.44819H99.8325C100.114 8.9441 100.687 8.62304 101.328 8.62304C102.319 8.62304 102.97 9.38018 102.97 10.6124V13.438ZM110.027 9.5072H108.873V11.7976C108.873 12.3808 109.075 12.6718 109.483 12.6718C109.668 12.6718 109.824 12.6518 109.949 12.6228L109.978 13.4189C109.775 13.497 109.502 13.536 109.164 13.536C108.337 13.536 107.843 13.0799 107.843 11.8857V9.5072H107.154V8.72105H107.843V7.85689L108.873 7.54583V8.72005H110.027V9.5072ZM115.579 13.438H114.531V10.7494C114.531 9.90528 114.212 9.4782 113.58 9.4782C113.036 9.4782 112.53 9.84727 112.53 10.5944V13.438H111.482V6.55664H112.53V9.39018H112.551C112.881 8.87608 113.359 8.62304 113.97 8.62304C114.969 8.62304 115.579 9.39918 115.579 10.6324V13.438ZM121.268 11.3316H118.12C118.14 12.2247 118.732 12.7288 119.607 12.7288C120.073 12.7288 120.501 12.6508 120.879 12.5058L121.043 13.2339C120.596 13.428 120.071 13.525 119.459 13.525C117.983 13.525 117.109 12.5928 117.109 11.1475C117.109 9.70124 118.004 8.61403 119.341 8.61403C120.547 8.61403 121.304 9.5072 121.304 10.8565C121.311 11.0157 121.299 11.1752 121.268 11.3316ZM120.306 10.5844C120.306 9.85627 119.939 9.34217 119.268 9.34217C118.666 9.34217 118.189 9.86627 118.121 10.5844H120.306Z" fill="white"/>
</g>
<defs>
<linearGradient id="paint0_linear" x1="99.0388" y1="40.1048" x2="99.0388" y2="-104.142" gradientUnits="userSpaceOnUse">
<stop stop-color="#1A1A1A" stop-opacity="0.1"/>
<stop offset="0.123" stop-color="#212121" stop-opacity="0.151"/>
<stop offset="0.308" stop-color="#353535" stop-opacity="0.227"/>
<stop offset="0.532" stop-color="#575757" stop-opacity="0.318"/>
<stop offset="0.783" stop-color="#858585" stop-opacity="0.421"/>
<stop offset="1" stop-color="#B3B3B3" stop-opacity="0.51"/>
</linearGradient>
<clipPath id="clip0">
<rect width="135" height="40" fill="white"/>
</clipPath>
</defs>
</svg>
