<svg width="30" height="30" viewBox="0 0 30 30" fill="none" xmlns="http://www.w3.org/2000/svg">
<g clip-path="url(#clip0)">
<path d="M15 6.3C19.065 6.3 23.472 9.228 28.107 15C23.472 20.772 19.065 23.7 15 23.7C10.935 23.7 6.52802 20.772 1.89302 15C6.52802 9.228 10.935 6.3 15 6.3ZM15 4.5C8.10002 4.5 2.27102 11.628 0.321016 14.082C0.112132 14.3424 -0.00170898 14.6662 -0.00170898 15C-0.00170898 15.3338 0.112132 15.6576 0.321016 15.918C2.27102 18.372 8.10002 25.5 15 25.5C21.9 25.5 27.729 18.372 29.679 15.918C29.8879 15.6576 30.0017 15.3338 30.0017 15C30.0017 14.6662 29.8879 14.3424 29.679 14.082C27.729 11.628 21.9 4.5 15 4.5Z" fill="#313131"/>
<path d="M15 11.55C15.6823 11.55 16.3494 11.7523 16.9167 12.1314C17.4841 12.5105 17.9263 13.0493 18.1874 13.6797C18.4485 14.3101 18.5168 15.0038 18.3837 15.6731C18.2506 16.3423 17.922 16.957 17.4395 17.4395C16.957 17.922 16.3423 18.2506 15.6731 18.3837C15.0038 18.5168 14.3101 18.4485 13.6797 18.1874C13.0493 17.9263 12.5105 17.4841 12.1314 16.9167C11.7523 16.3494 11.55 15.6823 11.55 15C11.5508 14.0852 11.9145 13.2082 12.5614 12.5614C13.2082 11.9145 14.0852 11.5508 15 11.55ZM15 9.75C13.9616 9.75 12.9466 10.0579 12.0833 10.6348C11.2199 11.2117 10.547 12.0316 10.1496 12.9909C9.75227 13.9502 9.64831 15.0058 9.85088 16.0242C10.0535 17.0426 10.5535 17.9781 11.2877 18.7123C12.0219 19.4465 12.9574 19.9465 13.9758 20.1491C14.9942 20.3517 16.0498 20.2477 17.0091 19.8504C17.9684 19.453 18.7883 18.7801 19.3652 17.9167C19.9421 17.0534 20.25 16.0384 20.25 15C20.25 13.6076 19.6969 12.2723 18.7123 11.2877C17.7277 10.3031 16.3924 9.75 15 9.75Z" fill="#313131"/>
</g>
<defs>
<clipPath id="clip0">
<rect width="30" height="30" fill="white"/>
</clipPath>
</defs>
</svg>
