<svg width="34" height="34" viewBox="0 0 34 34" fill="none" xmlns="http://www.w3.org/2000/svg">
<g clip-path="url(#clip0)">
<path d="M32.3 6.45928H23.8612C24.4165 5.5468 24.6077 4.45869 24.397 3.41154C24.1863 2.36439 23.589 1.43499 22.724 0.808317C21.859 0.181646 20.7897 -0.096335 19.7291 0.0297023C18.6684 0.15574 17.694 0.676553 17 1.48848C16.306 0.676553 15.3316 0.15574 14.2709 0.0297023C13.2103 -0.096335 12.141 0.181646 11.276 0.808317C10.411 1.43499 9.81371 2.36439 9.60298 3.41154C9.39225 4.45869 9.58355 5.5468 10.1388 6.45928H1.7C1.24913 6.45928 0.81673 6.63839 0.497918 6.9572C0.179107 7.27601 0 7.70841 0 8.15928L0 15.6393C0 16.0902 0.179107 16.5226 0.497918 16.8414C0.81673 17.1602 1.24913 17.3393 1.7 17.3393H3.4V32.2993C3.4 32.7502 3.57911 33.1826 3.89792 33.5014C4.21673 33.8202 4.64913 33.9993 5.1 33.9993H28.9C29.3509 33.9993 29.7833 33.8202 30.1021 33.5014C30.4209 33.1826 30.6 32.7502 30.6 32.2993V17.3393H32.3C32.7509 17.3393 33.1833 17.1602 33.5021 16.8414C33.8209 16.5226 34 16.0902 34 15.6393V8.15928C34 7.70841 33.8209 7.27601 33.5021 6.9572C33.1833 6.63839 32.7509 6.45928 32.3 6.45928ZM20.23 2.03928C20.8161 2.03928 21.3783 2.27212 21.7927 2.68657C22.2072 3.10103 22.44 3.66315 22.44 4.24928C22.44 4.83541 22.2072 5.39753 21.7927 5.81199C21.3783 6.22644 20.8161 6.45928 20.23 6.45928H18.02V4.24928C18.0209 3.66343 18.254 3.10183 18.6683 2.68757C19.0825 2.27331 19.6441 2.04018 20.23 2.03928ZM13.77 2.03928C14.3559 2.04018 14.9175 2.27331 15.3317 2.68757C15.746 3.10183 15.9791 3.66343 15.98 4.24928V6.45928H13.77C13.1839 6.45928 12.6217 6.22644 12.2073 5.81199C11.7928 5.39753 11.56 4.83541 11.56 4.24928C11.56 3.66315 11.7928 3.10103 12.2073 2.68657C12.6217 2.27212 13.1839 2.03928 13.77 2.03928ZM2.04 15.2993V8.49928H11.9V15.2993H2.04ZM5.44 31.9593V17.3393H11.9V31.9593H5.44ZM13.94 31.9593V8.49928H20.06V31.9593H13.94ZM28.56 31.9593H22.1V17.3393H28.56V31.9593ZM31.96 15.2993H22.1V8.49928H31.96V15.2993Z" fill="white"/>
</g>
<defs>
<clipPath id="clip0">
<rect width="34" height="34" fill="white"/>
</clipPath>
</defs>
</svg>
