<svg width="135" height="40" viewBox="0 0 135 40" fill="none" xmlns="http://www.w3.org/2000/svg">
<path d="M130 39.9933H4.99986C2.19996 39.9933 0 37.7941 0 34.9952V5.00543C0 2.20651 2.19996 0.00732422 4.99986 0.00732422H130C132.8 0.00732422 135 2.20651 135 5.00543V34.9952C135 37.7941 132.8 39.9933 130 39.9933Z" fill="black"/>
<path d="M130 0.806784C132.3 0.806784 134.2 2.70638 134.2 5.00543V34.9952C134.2 37.2942 132.3 39.1938 130 39.1938H4.99986C2.7 39.1938 0.79974 37.2942 0.79974 34.9952V5.00543C0.79974 2.70638 2.7 0.806784 4.99986 0.806784H130ZM130 0.00732422H4.99986C2.19996 0.00732422 0 2.30638 0 5.00543V34.9952C0 37.7941 2.19996 39.9933 4.99986 39.9933H130C132.8 39.9933 135 37.7941 135 34.9952V5.00543C135 2.30638 132.8 0.00732422 130 0.00732422Z" fill="#A6A6A6"/>
<path d="M47.4001 10.2025C47.4001 11.002 47.2003 11.7021 46.6981 12.1998C46.0981 12.7996 45.3983 13.0997 44.4981 13.0997C43.5979 13.0997 42.8981 12.7996 42.2982 12.1998C41.6982 11.6001 41.4001 10.9043 41.4001 10.0034C41.4001 9.10241 41.7004 8.40389 42.3003 7.80416C42.9003 7.20443 43.6001 6.9043 44.5003 6.9043C44.9183 6.90881 45.3293 7.01163 45.7002 7.20443C46.1003 7.40416 46.4022 7.60443 46.6003 7.90619L46.1003 8.40605C45.7002 7.90619 45.2001 7.7043 44.5003 7.7043C43.9003 7.7043 43.3004 7.90403 42.9003 8.40605C42.4002 8.80605 42.1983 9.40578 42.1983 10.1054C42.1983 10.805 42.3981 11.4047 42.9003 11.8047C43.4025 12.2047 43.9003 12.5065 44.5003 12.5065C45.2023 12.5065 45.7002 12.3067 46.2002 11.8047C46.3602 11.6488 46.4869 11.4622 46.5729 11.2561C46.6588 11.0499 46.7021 10.8286 46.7002 10.6052H44.4997V9.80363H47.3995V10.2025H47.4001ZM52.002 7.7043H49.302V9.6039H51.8022V10.3057H49.302V12.2052H52.002V13.0047H48.5001V7.0047H52.002V7.7043ZM55.3019 13.0025H54.5022V7.7043H52.8001V7.00254H57.0002V7.7043H55.3003L55.3019 13.0025ZM59.9022 13.0025V7.0047H60.7019V13.0025H59.9022ZM64.1023 13.0025H63.3026V7.7043H61.6026V7.00254H65.7029V7.7043H64.0029V13.0025H64.1023ZM73.602 12.2031C73.002 12.8028 72.3022 13.103 71.402 13.103C70.5018 13.103 69.802 12.8028 69.2021 12.2031C68.6021 11.6034 68.3019 10.9038 68.3019 10.0039C68.3019 9.10403 68.6021 8.40443 69.2021 7.8047C69.802 7.20497 70.5018 6.90484 71.402 6.90484C72.3022 6.90484 73.002 7.20497 73.602 7.8047C74.2019 8.40443 74.5022 9.10403 74.5022 10.0039C74.5022 10.9038 74.1998 11.6028 73.602 12.2031ZM69.802 11.7032C70.2021 12.1032 70.8021 12.405 71.402 12.405C72.002 12.405 72.6019 12.2052 73.002 11.7032C73.4513 11.2516 73.7037 10.6408 73.704 10.0039C73.704 9.30214 73.5042 8.70457 73.002 8.30457C72.6019 7.90457 72.002 7.60281 71.402 7.60281C70.8021 7.60281 70.2021 7.80254 69.802 8.30457C69.3527 8.75614 69.1004 9.36702 69.1 10.0039C69.1 10.7035 69.2998 11.3032 69.7998 11.7032H69.802ZM75.6 13.0025V7.0047H76.5002L79.4 11.7011V7.0047H80.1997V13.0025H79.4L76.302 8.1043V13.0025H75.6Z" fill="white" stroke="white" stroke-width="0.2" stroke-miterlimit="10"/>
<path d="M68.0999 21.7991C65.7001 21.7991 63.7999 23.5983 63.7999 26.0976C63.7953 26.6634 63.9035 27.2244 64.118 27.748C64.3324 28.2715 64.649 28.7472 65.0492 29.1472C65.4494 29.5473 65.9252 29.8638 66.449 30.0782C66.9727 30.2926 67.5339 30.4007 68.0999 30.3962C70.4996 30.3962 72.3999 28.597 72.3999 26.0976C72.3999 23.4984 70.5002 21.7991 68.0999 21.7991ZM68.0999 28.597C66.8001 28.597 65.7001 27.4974 65.7001 25.9978C65.7001 24.4982 66.8001 23.3986 68.0999 23.3986C69.3997 23.3986 70.4997 24.3983 70.4997 25.9978C70.5002 27.4974 69.4002 28.597 68.0999 28.597ZM58.8 21.7991C56.4002 21.7991 54.5 23.5983 54.5 26.0976C54.4955 26.6634 54.6036 27.2244 54.8181 27.748C55.0326 28.2715 55.3491 28.7472 55.7493 29.1472C56.1495 29.5473 56.6254 29.8638 57.1491 30.0782C57.6729 30.2926 58.2341 30.4007 58.8 30.3962C61.1998 30.3962 63.1 28.597 63.1 26.0976C63.1 23.4984 61.1998 21.7991 58.8 21.7991ZM58.8 28.597C57.5002 28.597 56.4002 27.4974 56.4002 25.9978C56.4002 24.4982 57.5002 23.3986 58.8 23.3986C60.0998 23.3986 61.1998 24.3983 61.1998 25.9978C61.1998 27.4974 60.1019 28.597 58.8 28.597ZM47.6998 23.099V24.8982H52.0019C51.902 25.8979 51.5019 26.6974 51.0019 27.1972C50.4019 27.797 49.4018 28.4966 47.7019 28.4966C45.0019 28.4966 43.0039 26.3972 43.0039 23.6982C43.0039 20.9991 45.104 18.8998 47.7019 18.8998C49.1021 18.8998 50.2021 19.4995 51.0019 20.1991L52.3016 18.8998C51.2017 17.9 49.8014 17.1006 47.8018 17.1006C44.2016 17.1006 41.1021 20.0998 41.1021 23.6982C41.1021 27.2966 44.2022 30.2958 47.8018 30.2958C49.7998 30.2958 51.2038 29.696 52.4021 28.3962C53.602 27.1967 54.0021 25.4974 54.0021 24.1975C54.0021 23.7975 54.0021 23.398 53.9022 23.0979H47.6998V23.099ZM93.0997 24.4987C92.6996 23.499 91.6995 21.7996 89.4995 21.7996C87.2996 21.7996 85.4998 23.499 85.4998 26.0982C85.4998 28.4971 87.2996 30.3967 89.6999 30.3967C91.6001 30.3967 92.8 29.1972 93.1996 28.4971L91.7999 27.4974C91.2999 28.1991 90.7 28.6968 89.6999 28.6968C88.6998 28.6968 88.0999 28.2968 87.5998 27.3975L93.3001 24.9986L93.1003 24.4987H93.0997ZM87.2996 25.8984C87.2996 24.299 88.5994 23.3991 89.4995 23.3991C90.2015 23.3991 90.8998 23.7991 91.0996 24.299L87.2996 25.8984ZM82.6016 29.9972H84.5018V17.5006H82.6016V29.9972ZM79.5997 22.699C79.0997 22.1991 78.2999 21.6992 77.2999 21.6992C75.1998 21.6992 73.1996 23.5988 73.1996 25.9978C73.1996 28.3967 75.0999 30.1964 77.2999 30.1964C78.2999 30.1964 79.0997 29.6966 79.4998 29.1967H79.5997V29.7975C79.5997 31.397 78.6995 32.2968 77.2999 32.2968C76.1999 32.2968 75.3996 31.4974 75.1998 30.7972L73.5998 31.499C74.0998 32.5986 75.2997 33.9983 77.3998 33.9983C79.5997 33.9983 81.3995 32.699 81.3995 29.5999V21.9994H79.5997V22.7011V22.699ZM77.3998 28.597C76.1 28.597 75 27.4974 75 25.9978C75 24.4982 76.1 23.3986 77.3998 23.3986C78.6995 23.3986 79.6996 24.4982 79.6996 25.9978C79.6996 27.4974 78.7001 28.597 77.3998 28.597ZM101.8 17.5006H97.3004V29.9967H99.1979V25.3003H101.798C103.898 25.3003 105.898 23.8007 105.898 21.4018C105.898 19.0029 103.9 17.5006 101.8 17.5006ZM101.898 23.4984H99.1979V19.2005H101.898C103.298 19.2005 104.098 20.3999 104.098 21.2998C103.998 22.3994 103.198 23.499 101.898 23.499V23.4984ZM113.4 21.7003C112 21.7003 110.6 22.3001 110.1 23.5999L111.8 24.3017C112.2 23.5999 112.8 23.4018 113.5 23.4018C114.5 23.4018 115.4 24.0015 115.498 25.0013V25.1011C115.198 24.9014 114.398 24.6013 113.598 24.6013C111.798 24.6013 109.997 25.601 109.997 27.4002C109.997 29.0995 111.498 30.1991 113.098 30.1991C114.397 30.1991 114.998 29.5994 115.497 28.9997H115.597V29.9994H117.397V25.1983C117.197 22.9991 115.497 21.6998 113.397 21.6998L113.4 21.7003ZM113.2 28.598C112.6 28.598 111.7 28.2979 111.7 27.4984C111.7 26.4987 112.8 26.1991 113.698 26.1991C114.498 26.1991 114.898 26.3988 115.398 26.5991C115.2 27.797 114.2 28.597 113.2 28.597V28.598ZM123.7 22.0005L121.6 27.3986H121.5L119.3 22.0005H117.302L120.602 29.5978L118.702 33.7964H120.602L125.702 22.0005H123.704H123.7ZM106.9 29.9967H108.8V17.5006H106.9V29.9967Z" fill="white"/>
<path d="M10.3999 7.50342C10.0997 7.80355 9.99976 8.30288 9.99976 8.90315V30.996C9.99976 31.5957 10.1996 32.0956 10.4998 32.3957L10.6002 32.4967L23.0003 20.0999V19.9002L10.3999 7.50342Z" fill="url(#paint0_linear)"/>
<path d="M27 24.2984L22.8998 20.1997V19.8995L27 15.8013L27.0999 15.9011L31.9999 18.7001C33.4001 19.4995 33.4001 20.7994 31.9999 21.5988L27 24.2984Z" fill="url(#paint1_linear)"/>
<path d="M27.0999 24.1987L22.8998 20L10.3999 32.4967C10.8999 32.9965 11.5998 32.9965 12.5 32.5965L27.0999 24.1987Z" fill="url(#paint2_linear)"/>
<path d="M27.0999 15.8015L12.5 7.50349C11.5998 7.00362 10.8999 7.10349 10.3999 7.60335L22.8998 20.0001L27.0999 15.8015Z" fill="url(#paint3_linear)"/>
<path opacity="0.2" d="M27 24.0986L12.4999 32.2957C11.7001 32.7955 10.9998 32.6957 10.5019 32.2957L10.402 32.3955L10.5019 32.4954C11.0019 32.8954 11.7018 32.9953 12.4999 32.4954L27 24.0986Z" fill="black"/>
<path opacity="0.12" d="M10.3999 32.2958C10.0997 31.9957 9.99976 31.4964 9.99976 30.8961V30.996C9.99976 31.5957 10.1996 32.0955 10.4998 32.3957V32.2958H10.3999ZM31.9999 21.2999L27 24.0988L27.0999 24.1987L31.9999 21.3997C32.7019 20.9997 33 20.4999 33 20C33 20.4999 32.5998 20.8999 31.9999 21.2993V21.2999Z" fill="black"/>
<path opacity="0.25" d="M12.5 7.60435L31.9999 18.7007C32.5998 19.1007 33 19.5002 33 20C33 19.5002 32.6997 19.0003 31.9999 18.6003L12.5 7.50341C11.0997 6.70395 9.99976 7.30368 9.99976 8.90314V9.003C10.0003 7.50341 11.1003 6.80489 12.5 7.60435Z" fill="white"/>
<defs>
<linearGradient id="paint0_linear" x1="21.8927" y1="8.73756" x2="5.10725" y2="25.5189" gradientUnits="userSpaceOnUse">
<stop stop-color="#00A0FF"/>
<stop offset="0.01" stop-color="#00A1FF"/>
<stop offset="0.26" stop-color="#00BEFF"/>
<stop offset="0.51" stop-color="#00D2FF"/>
<stop offset="0.76" stop-color="#00DFFF"/>
<stop offset="1" stop-color="#00E3FF"/>
</linearGradient>
<linearGradient id="paint1_linear" x1="33.9237" y1="20.0844" x2="9.73169" y2="20.0844" gradientUnits="userSpaceOnUse">
<stop stop-color="#FFE000"/>
<stop offset="0.41" stop-color="#FFBD00"/>
<stop offset="0.78" stop-color="#FFA500"/>
<stop offset="1" stop-color="#FF9C00"/>
</linearGradient>
<linearGradient id="paint2_linear" x1="24.9129" y1="22.3139" x2="2.15903" y2="45.0756" gradientUnits="userSpaceOnUse">
<stop stop-color="#FF3A44"/>
<stop offset="1" stop-color="#C31162"/>
</linearGradient>
<linearGradient id="paint3_linear" x1="7.35156" y1="0.249917" x2="17.5088" y2="10.4107" gradientUnits="userSpaceOnUse">
<stop stop-color="#32A071"/>
<stop offset="0.07" stop-color="#2DA771"/>
<stop offset="0.48" stop-color="#15CF74"/>
<stop offset="0.8" stop-color="#06E775"/>
<stop offset="1" stop-color="#00F076"/>
</linearGradient>
</defs>
</svg>
