<svg width="34" height="34" viewBox="0 0 34 34" fill="none" xmlns="http://www.w3.org/2000/svg">
<g clip-path="url(#clip0)">
<path d="M32.5449 23.1201C33.2015 22.3275 33.5482 21.3236 33.5207 20.2947C33.4726 19.4061 33.1547 18.5533 32.6095 17.8501C32.8645 17.1973 33.4799 15.0995 31.6813 13.4573C30.5389 12.4169 28.6213 11.9545 25.9489 12.0973C24.7791 12.1423 23.6148 12.281 22.4673 12.5121H22.4401C22.1341 12.5665 21.7907 12.6379 21.3929 12.7229C21.3929 12.2367 21.4847 11.1011 22.2803 8.69728C23.2901 5.66108 23.2255 3.32868 22.1001 1.77488C20.9033 0.129281 18.9993 8.12751e-05 18.4451 8.12751e-05C18.1772 -0.00244139 17.912 0.0537892 17.6683 0.164813C17.4245 0.275838 17.208 0.438956 17.0341 0.642681C16.2181 1.59128 16.3337 3.33208 16.4221 4.04268C15.3511 6.91228 12.7773 12.7467 10.6761 14.3651C10.6318 14.3973 10.5908 14.4337 10.5537 14.4739C9.99346 15.0762 9.53421 15.7651 9.19366 16.5139C8.77393 16.2937 8.30762 16.1771 7.83366 16.1739H3.47826C2.6814 16.1748 1.91743 16.4917 1.35397 17.0552C0.790506 17.6187 0.473556 18.3826 0.472656 19.1795V30.7157C0.473556 31.5125 0.790506 32.2765 1.35397 32.84C1.91743 33.4034 2.6814 33.7204 3.47826 33.7213H7.80306C8.41115 33.7191 9.00415 33.5317 9.50306 33.1841L11.1453 33.3779C14.2798 33.7595 17.4363 33.9321 20.5939 33.8947C21.4779 33.9627 22.2565 33.9933 22.9739 33.9933C24.084 34.0087 25.1927 33.9085 26.2821 33.6941C28.4785 33.2385 29.9711 32.3001 30.7327 30.9401C31.1868 30.1106 31.3598 29.1562 31.2257 28.2201C31.7584 27.7659 32.1801 27.1958 32.4583 26.5534C32.7364 25.911 32.8638 25.2133 32.8305 24.5141C32.804 24.0379 32.7078 23.5683 32.5449 23.1201ZM30.6205 22.2395C30.4675 22.4008 30.3714 22.6077 30.3469 22.8286C30.3223 23.0496 30.3706 23.2725 30.4845 23.4635C30.6669 23.8184 30.7735 24.2075 30.7973 24.6059C30.8449 25.5103 30.4063 26.3059 29.4883 27.0063C29.3162 27.1379 29.1904 27.3209 29.1293 27.5287C29.0682 27.7365 29.0748 27.9585 29.1483 28.1623C29.3111 28.7564 29.2444 29.39 28.9613 29.9371C28.4921 30.7769 27.4517 31.3719 25.8673 31.7085C24.5991 31.9805 22.8651 32.0485 20.7163 31.8615H20.6143C17.5364 31.8955 14.4595 31.7274 11.4037 31.3583L10.7577 31.2801C10.7924 31.0917 10.8095 30.9004 10.8087 30.7089V19.1965C10.808 18.898 10.7633 18.6013 10.6761 18.3159C10.914 17.4321 11.3566 16.6168 11.9681 15.9359C15.0723 13.4777 18.0881 5.41968 18.4281 4.51188C18.4881 4.35007 18.5034 4.17505 18.4723 4.00528C18.3567 3.25388 18.3907 2.33248 18.5403 2.01968C18.9083 2.02397 19.2709 2.10973 19.6018 2.27081C19.9328 2.43188 20.224 2.66428 20.4545 2.95128C21.1685 3.93728 21.1345 5.69848 20.3627 8.05128C19.1523 11.6791 19.0401 13.6001 20.0193 14.4501C20.2353 14.637 20.4976 14.7624 20.7787 14.8132C21.0598 14.8641 21.3494 14.8385 21.6173 14.7391C22.0865 14.6303 22.4911 14.5487 22.8515 14.4909H22.8923H22.9433C25.0887 14.0217 28.9851 13.7327 30.3145 14.9431C31.4229 15.9631 30.6545 17.3027 30.5457 17.4523C30.4155 17.6564 30.3621 17.9001 30.3951 18.1399C30.4282 18.3797 30.5454 18.6 30.7259 18.7613C31.1641 19.191 31.4363 19.7618 31.4943 20.3729C31.5215 20.9883 31.2291 21.6173 30.6239 22.2429L30.6205 22.2395ZM2.50246 19.2135C2.50246 18.9547 2.60526 18.7065 2.78826 18.5235C2.97126 18.3405 3.21946 18.2377 3.47826 18.2377H7.80306C8.06186 18.2377 8.31005 18.3405 8.49305 18.5235C8.67605 18.7065 8.77886 18.9547 8.77886 19.2135V30.7089C8.77886 30.9677 8.67605 31.2159 8.49305 31.3989C8.31005 31.5819 8.06186 31.6847 7.80306 31.6847H3.42046C3.173 31.6691 2.94074 31.56 2.77086 31.3793C2.60098 31.1987 2.50623 30.9602 2.50586 30.7123L2.50246 19.2135Z" fill="white"/>
</g>
<defs>
<clipPath id="clip0">
<rect width="34" height="34" fill="white"/>
</clipPath>
</defs>
</svg>
