<svg width="34" height="34" viewBox="0 0 34 34" fill="none" xmlns="http://www.w3.org/2000/svg">
<g clip-path="url(#clip0)">
<path d="M17 9.3501C15.487 9.3501 14.0079 9.79876 12.7499 10.6394C11.4918 11.4799 10.5113 12.6747 9.9323 14.0726C9.35329 15.4704 9.20179 17.0086 9.49697 18.4925C9.79215 19.9765 10.5207 21.3396 11.5906 22.4095C12.6605 23.4793 14.0236 24.2079 15.5075 24.5031C16.9915 24.7983 18.5297 24.6468 19.9275 24.0678C21.3254 23.4888 22.5201 22.5082 23.3607 21.2502C24.2013 19.9922 24.65 18.5131 24.65 17.0001C24.65 14.9712 23.844 13.0254 22.4093 11.5907C20.9747 10.1561 19.0289 9.3501 17 9.3501ZM17 22.6101C15.8904 22.6101 14.8058 22.2811 13.8832 21.6646C12.9607 21.0482 12.2416 20.172 11.817 19.147C11.3924 18.1219 11.2813 16.9939 11.4978 15.9056C11.7142 14.8174 12.2485 13.8178 13.0331 13.0332C13.8177 12.2487 14.8173 11.7144 15.9055 11.4979C16.9938 11.2814 18.1217 11.3925 19.1468 11.8171C20.1719 12.2417 21.0481 12.9608 21.6645 13.8833C22.281 14.8059 22.61 15.8905 22.61 17.0001C22.6082 18.4874 22.0165 19.9133 20.9649 20.965C19.9132 22.0167 18.4873 22.6083 17 22.6101Z" fill="white"/>
<path d="M31.96 6.7998H2.04C1.49896 6.7998 0.980076 7.01473 0.597502 7.39731C0.214928 7.77988 0 8.29876 0 8.8398L0 25.1598C0 25.7008 0.214928 26.2197 0.597502 26.6023C0.980076 26.9849 1.49896 27.1998 2.04 27.1998H31.96C32.501 27.1998 33.0199 26.9849 33.4025 26.6023C33.7851 26.2197 34 25.7008 34 25.1598V8.8398C34 8.29876 33.7851 7.77988 33.4025 7.39731C33.0199 7.01473 32.501 6.7998 31.96 6.7998ZM2.04 8.8398H7.0176C6.67308 10.021 6.0364 11.0962 5.1664 11.9662C4.2964 12.8362 3.22115 13.4729 2.04 13.8174V8.8398ZM2.04 25.1598V20.5222C3.16308 20.8499 4.19127 21.442 5.03839 22.2489C5.88551 23.0558 6.5269 24.054 6.9088 25.1598H2.04ZM31.96 25.1598H27.0912C27.4721 24.0534 28.1132 23.0547 28.9604 22.2477C29.8077 21.4406 30.8364 20.8489 31.96 20.5222V25.1598ZM31.96 18.4176C30.2864 18.7908 28.7478 19.6173 27.5124 20.8064C26.2771 21.9956 25.3927 23.5017 24.956 25.1598H9.044C8.60663 23.502 7.72199 21.9963 6.48677 20.8073C5.25155 19.6182 3.71326 18.7915 2.04 18.4176V15.922C3.77078 15.5351 5.35575 14.6637 6.60982 13.4096C7.86387 12.1556 8.73526 10.5706 9.1222 8.8398H24.8778C25.264 10.5709 26.1351 12.1563 27.3893 13.4105C28.6435 14.6647 30.2289 15.5358 31.96 15.922V18.4176ZM26.9824 8.8398H31.96V13.8174C30.7789 13.4729 29.7036 12.8362 28.8336 11.9662C27.9636 11.0962 27.3269 10.021 26.9824 8.8398Z" fill="white"/>
<path d="M18.7442 18.2171L18.5538 18.3191C18.1523 18.5296 17.7082 18.6459 17.255 18.6591C17.0442 18.6591 16.5512 18.6183 16.5512 18.2341C16.5512 18.0267 16.6838 17.8601 17.3604 17.6255C18.4416 17.2379 18.9924 16.6361 18.9924 15.8337C18.9924 14.7627 18.0676 14.0147 16.7416 14.0147C16.2342 14.0021 15.7303 14.1019 15.266 14.3071L15.1368 14.3683L15.5074 15.7011L15.691 15.6093C16.0234 15.447 16.3887 15.3633 16.7586 15.3645C17.136 15.3645 17.3876 15.5107 17.3876 15.7249C17.3876 15.9391 17.2074 16.0649 16.4798 16.3403C15.436 16.7245 14.9498 17.2991 14.9498 18.1389C14.9498 18.9787 15.572 20.0157 17.3298 20.0157C17.8977 20.0199 18.4591 19.8955 18.972 19.6519L19.0876 19.5873L18.7442 18.2171Z" fill="white"/>
</g>
<defs>
<clipPath id="clip0">
<rect width="34" height="34" fill="white"/>
</clipPath>
</defs>
</svg>
