<svg width="25" height="25" viewBox="0 0 25 25" fill="none" xmlns="http://www.w3.org/2000/svg">
<g clip-path="url(#clip0)">
<path d="M14.835 0H10.165C7.74945 0.00264563 5.43357 0.963216 3.72529 2.67103C2.017 4.37884 1.0558 6.69446 1.05249 9.11V13.3175C1.06159 15.1133 1.59689 16.867 2.59219 18.3617C3.5875 19.8564 4.99913 21.0266 6.65249 21.7275V24.2875C6.65265 24.4251 6.69263 24.5596 6.7676 24.675C6.84257 24.7903 6.94933 24.8815 7.07499 24.9375C7.20098 24.9939 7.34068 25.0124 7.47699 24.9906C7.6133 24.9688 7.74032 24.9078 7.84249 24.815L10.48 22.4275H14.835C17.2505 22.4249 19.5664 21.4643 21.2747 19.7565C22.983 18.0487 23.9442 15.733 23.9475 13.3175V9.11C23.9442 6.69446 22.983 4.37884 21.2747 2.67103C19.5664 0.963216 17.2505 0.00264563 14.835 0V0ZM7.60249 20.5675C6.10455 20.0356 4.80786 19.0532 3.8903 17.7552C2.97273 16.4572 2.47923 14.9071 2.47749 13.3175V9.11C2.48014 7.07196 3.29092 5.11815 4.73203 3.67704C6.17314 2.23593 8.12695 1.42515 10.165 1.4225H14.835C16.873 1.42515 18.8268 2.23593 20.268 3.67704C21.7091 5.11815 22.5198 7.07196 22.5225 9.11V13.3175C22.5185 15.3547 21.7072 17.3072 20.2662 18.7472C18.8252 20.1873 16.8722 20.9974 14.835 21H10.205C10.0284 21.0001 9.8581 21.0661 9.72749 21.185L8.07749 22.685V21.25C8.08011 21.1007 8.03563 20.9545 7.95036 20.8319C7.86508 20.7094 7.74336 20.6169 7.60249 20.5675Z" fill="#313131"/>
<path d="M13.825 18.2901C14.453 18.6898 15.2133 18.8256 15.9408 18.6678C16.6683 18.5101 17.3041 18.0715 17.71 17.4476L18.7275 15.8801C18.8644 15.667 18.9116 15.4084 18.8587 15.1607C18.8058 14.9129 18.6571 14.6962 18.445 14.5576L15.5775 12.6951C15.1769 12.434 14.6921 12.3348 14.2211 12.4174C13.75 12.5 13.3279 12.7583 13.04 13.1401C12.085 12.8076 11.075 12.3051 10.3875 10.5651L10.4725 10.4926C10.8498 10.1628 11.0811 9.69694 11.1157 9.19703C11.1504 8.69712 10.9857 8.20383 10.6575 7.82509L8.41003 5.25009C8.24316 5.05918 8.00755 4.94204 7.75462 4.92425C7.50169 4.90645 7.25199 4.98943 7.06003 5.15509L5.65003 6.38009C4.65003 7.24009 4.45753 8.49259 5.04253 10.1026C5.06045 10.1509 5.08219 10.1977 5.10753 10.2426C5.99646 11.7648 7.06586 13.1742 8.29253 14.4401C10.17 16.3501 13.4775 18.1101 13.825 18.2901ZM6.57503 7.44759L7.63253 6.53009L9.58003 8.75009C9.62068 8.79601 9.6518 8.84955 9.67157 8.90761C9.69134 8.96566 9.69936 9.02707 9.69517 9.08826C9.69098 9.14944 9.67467 9.20919 9.64718 9.26401C9.61968 9.31883 9.58156 9.36764 9.53503 9.40759L8.96253 9.90759C8.89211 9.96756 8.84118 10.0472 8.81624 10.1362C8.7913 10.2253 8.79349 10.3198 8.82253 10.4076C9.80003 13.5801 11.6975 14.2026 13.0725 14.6576L13.275 14.7251C13.3731 14.7584 13.4794 14.7581 13.5772 14.7241C13.6751 14.6901 13.7587 14.6245 13.815 14.5376L14.145 14.0376C14.1784 13.9863 14.2216 13.9421 14.2722 13.9075C14.3227 13.8729 14.3796 13.8487 14.4395 13.8361C14.4994 13.8236 14.5612 13.823 14.6214 13.8344C14.6815 13.8458 14.7389 13.869 14.79 13.9026L17.28 15.5001L16.5175 16.6751C16.4142 16.8313 16.2809 16.9654 16.1254 17.0697C15.9699 17.174 15.7952 17.2463 15.6115 17.2826C15.4278 17.3189 15.2387 17.3183 15.0552 17.281C14.8717 17.2437 14.6975 17.1703 14.5425 17.0651C14.5075 17.0476 11.105 15.2751 9.31253 13.4476C8.18285 12.2754 7.19444 10.9749 6.36753 9.57259C6.00003 8.53759 6.06503 7.90009 6.58503 7.44759H6.57503Z" fill="#313131"/>
<path d="M13.1425 8.08273C13.0525 8.05696 12.9583 8.04916 12.8654 8.05977C12.7724 8.07039 12.6824 8.09921 12.6006 8.1446C12.5188 8.18998 12.4467 8.25104 12.3884 8.32428C12.3302 8.39753 12.287 8.48153 12.2612 8.57148C12.2354 8.66144 12.2276 8.75559 12.2382 8.84856C12.2489 8.94153 12.2777 9.0315 12.3231 9.11333C12.3684 9.19516 12.4295 9.26725 12.5028 9.32549C12.576 9.38372 12.66 9.42696 12.75 9.45273C13.054 9.54022 13.3307 9.70361 13.5542 9.92753C13.7777 10.1515 13.9406 10.4285 14.0275 10.7327C14.0703 10.8819 14.1606 11.0131 14.2846 11.1065C14.4087 11.1998 14.5597 11.2503 14.715 11.2502C14.7801 11.2498 14.8448 11.2405 14.9075 11.2227C14.998 11.1981 15.0828 11.1559 15.157 11.0984C15.2312 11.041 15.2933 10.9694 15.3398 10.8879C15.3862 10.8063 15.4161 10.7164 15.4277 10.6233C15.4394 10.5302 15.4325 10.4357 15.4075 10.3452C15.2531 9.80678 14.9642 9.31652 14.5679 8.92067C14.1717 8.52482 13.6811 8.23644 13.1425 8.08273Z" fill="#313131"/>
<path d="M17.3626 10.6149C17.4277 10.6143 17.4924 10.6051 17.5551 10.5874C17.6456 10.5628 17.7305 10.5205 17.8046 10.4631C17.8788 10.4056 17.9409 10.334 17.9874 10.2525C18.0339 10.171 18.0638 10.081 18.0754 9.98793C18.087 9.8948 18.0801 9.8003 18.0551 9.70986C17.7665 8.70368 17.2269 7.78737 16.487 7.047C15.7471 6.30662 14.8311 5.7665 13.8251 5.47735C13.7342 5.44869 13.6386 5.43854 13.5437 5.44749C13.4489 5.45645 13.3568 5.48433 13.2729 5.52949C13.189 5.57465 13.1151 5.63618 13.0554 5.71043C12.9957 5.78467 12.9515 5.87014 12.9254 5.96176C12.8993 6.05338 12.8919 6.1493 12.9035 6.24385C12.9152 6.3384 12.9456 6.42966 12.9932 6.51223C13.0407 6.59479 13.1043 6.66699 13.1802 6.72456C13.2561 6.78212 13.3428 6.82387 13.4351 6.84735C14.2075 7.06981 14.9109 7.48467 15.4793 8.05309C16.0478 8.62151 16.4626 9.32489 16.6851 10.0974C16.7275 10.2449 16.8162 10.3749 16.9383 10.4681C17.0603 10.5613 17.2091 10.6128 17.3626 10.6149Z" fill="#313131"/>
<path d="M13.9675 3.93754C15.3029 4.32281 16.5186 5.04112 17.5003 6.02504C18.4821 7.00897 19.1977 8.22622 19.58 9.56254C19.6223 9.7118 19.712 9.84324 19.8355 9.93704C19.9591 10.0308 20.1098 10.0819 20.265 10.0825C20.3301 10.082 20.3948 10.0728 20.4575 10.055C20.548 10.0304 20.6328 9.9882 20.707 9.93074C20.7812 9.87327 20.8433 9.80172 20.8898 9.72018C20.9363 9.63865 20.9662 9.54873 20.9778 9.45561C20.9894 9.36249 20.9825 9.26799 20.9575 9.17754C20.5079 7.60661 19.6663 6.17578 18.5118 5.0195C17.3573 3.86323 15.9277 3.01947 14.3575 2.56754C14.2669 2.5418 14.172 2.53436 14.0785 2.54563C13.985 2.55691 13.8946 2.58668 13.8127 2.63321C13.7308 2.67975 13.659 2.74212 13.6014 2.81668C13.5439 2.89125 13.5017 2.97653 13.4775 3.06754C13.4288 3.24784 13.4529 3.44002 13.5446 3.60273C13.6362 3.76544 13.7881 3.88567 13.9675 3.93754Z" fill="#313131"/>
</g>
<defs>
<clipPath id="clip0">
<rect width="25" height="25" fill="white"/>
</clipPath>
</defs>
</svg>
