<svg width="25" height="25" viewBox="0 0 25 25" fill="none" xmlns="http://www.w3.org/2000/svg">
<path d="M16.3575 11.3325L10.8575 8.33252C10.6943 8.24375 10.5108 8.19889 10.3251 8.20233C10.1393 8.20578 9.95768 8.25741 9.79789 8.35218C9.6381 8.44694 9.50567 8.58158 9.41356 8.74292C9.32146 8.90426 9.27284 9.08675 9.27247 9.27252V15.2275C9.27161 15.4132 9.31939 15.5958 9.41107 15.7572C9.50274 15.9186 9.6351 16.0532 9.79497 16.1475C9.9537 16.2437 10.1349 16.2966 10.3204 16.301C10.5059 16.3054 10.6894 16.2611 10.8525 16.1725L16.3525 13.2175C16.5221 13.1254 16.6637 12.9892 16.7624 12.8234C16.8611 12.6575 16.9132 12.468 16.9132 12.275C16.9132 12.082 16.8611 11.8926 16.7624 11.7267C16.6637 11.5608 16.5221 11.4246 16.3525 11.3325H16.3575ZM14.775 12.2675L10.86 14.375V10.125L14.775 12.2675Z" fill="#313131"/>
<path d="M24.8175 7.51967C24.7975 7.31717 24.585 5.51967 23.705 4.59717C22.9921 3.84357 22.0203 3.388 20.985 3.32217L20.86 3.30717H20.815C17.5475 3.05717 12.565 3.03467 12.4975 3.03467C12.43 3.03467 7.4575 3.06967 4.1575 3.30717H4.1125H4.015H4C2.95946 3.37628 1.98706 3.84903 1.29 4.62467C0.4525 5.53217 0.21 7.29467 0.1875 7.49967V7.52967C0.165 7.73717 0 9.66467 0 11.5847V13.4472C0 15.3647 0.165 17.2922 0.1825 17.4997V17.5172C0.2025 17.7147 0.4125 19.4822 1.29 20.4047C2.2475 21.4522 3.4525 21.5897 4.1 21.6547C4.2 21.6547 4.285 21.6747 4.35 21.6872H4.41C6.3275 21.8697 12.4575 21.9597 12.52 21.9597H12.535C12.585 21.9597 17.575 21.9247 20.845 21.6872H20.89L21.0275 21.6722C22.056 21.6137 23.0199 21.1519 23.71 20.3872C24.55 19.4997 24.79 17.7347 24.8125 17.5347V17.4997C24.8125 17.4797 24.995 15.4472 24.995 13.4372V11.5847C25 9.57717 24.825 7.60467 24.8175 7.51967ZM23.4175 11.5822V13.4447C23.4175 15.3322 23.25 17.2722 23.2425 17.3522C23.1825 17.8172 22.9325 18.9147 22.5425 19.3372C22.3283 19.5755 22.0677 19.7676 21.7767 19.9017C21.4857 20.0358 21.1703 20.1091 20.85 20.1172L20.71 20.1322C17.5125 20.3622 12.735 20.3972 12.535 20.3997C12.475 20.3997 6.4425 20.3072 4.59 20.1372C4.495 20.1222 4.3925 20.1097 4.2825 20.0972C3.7475 20.0347 3.015 19.9522 2.4575 19.3472L2.4425 19.3322C2.06 18.9222 1.82 17.9072 1.75 17.3597C1.75 17.2797 1.5725 15.3472 1.5725 13.4447V11.5847C1.5725 9.70967 1.74 7.75717 1.7475 7.67717C1.82 7.12467 2.0725 6.09717 2.4475 5.69217C2.6657 5.44974 2.9299 5.25308 3.22473 5.1136C3.51957 4.97412 3.83918 4.89461 4.165 4.87967L4.28 4.86467C7.28 4.64967 11.635 4.61467 12.4875 4.59717C12.69 4.59717 17.4875 4.63467 20.6625 4.86467L20.7925 4.87967C21.4573 4.90822 22.0848 5.19422 22.5425 5.67717C22.9275 6.07717 23.165 7.11217 23.2275 7.67717C23.25 7.74967 23.4175 9.69717 23.4175 11.5847V11.5822Z" fill="#313131"/>
</svg>
